<svg xmlns="http://www.w3.org/2000/svg" width="302" height="66" fill="none"><path fill="#000" fill-rule="evenodd" d="M67.239 43.581h-55.43c-1.002 0-1.809.766-1.809 1.706 0 .947.81 1.713 1.81 1.713h55.429c1.003 0 1.813-.766 1.813-1.713 0-.94-.814-1.706-1.813-1.706Z" clip-rule="evenodd"/><path fill="#00993E" fill-rule="evenodd" d="M39.548 14.444c-14.204 0-25.715 11.13-25.715 24.856h51.43c.004-13.727-11.514-24.856-25.715-24.856Z" clip-rule="evenodd"/><path fill="#000" fill-rule="evenodd" d="M35.896 10h7.286v7.285h-7.286V10Z" clip-rule="evenodd"/><path fill="#7EB685" d="M83.252 47V19.2h13.64v2.96l-11.8-.12 1.56-1.52-.28 11.6-1.48-.64 10.76-.04v2.84h-10.76l1.52-.56.16 13.28h-3.32Zm26.539.52c-2.214 0-3.96-.493-5.24-1.48-1.254-.987-2.147-2.387-2.68-4.2-.534-1.813-.8-3.973-.8-6.48 0-2.507.266-4.667.8-6.48.533-1.813 1.426-3.213 2.68-4.2 1.28-.987 3.026-1.48 5.24-1.48 2.213 0 3.946.493 5.2 1.48 1.28.987 2.186 2.387 2.72 4.2.533 1.813.8 3.973.8 6.48 0 2.507-.267 4.667-.8 6.48-.534 1.813-1.44 3.213-2.72 4.2-1.254.987-2.987 1.48-5.2 1.48Zm0-2.88c1.013 0 1.853-.12 2.52-.36.693-.24 1.24-.68 1.64-1.32.426-.64.72-1.573.88-2.8.186-1.227.28-2.827.28-4.8 0-1.973-.094-3.573-.28-4.8-.16-1.227-.454-2.16-.88-2.8-.4-.667-.947-1.107-1.64-1.32-.667-.24-1.507-.36-2.52-.36-1.014 0-1.867.12-2.56.36-.667.213-1.214.653-1.64 1.32-.4.64-.694 1.573-.88 2.8-.187 1.227-.28 2.827-.28 4.8 0 1.973.093 3.573.28 4.8.186 1.227.48 2.16.88 2.8.426.64.973 1.08 1.64 1.32.693.24 1.546.36 2.56.36Zm23.047 2.88c-2.214 0-3.96-.493-5.24-1.48-1.254-.987-2.147-2.387-2.68-4.2-.534-1.813-.8-3.973-.8-6.48 0-2.507.266-4.667.8-6.48.533-1.813 1.426-3.213 2.68-4.2 1.28-.987 3.026-1.48 5.24-1.48 2.213 0 3.946.493 5.2 1.48 1.28.987 2.186 2.387 2.72 4.2.533 1.813.8 3.973.8 6.48 0 2.507-.267 4.667-.8 6.48-.534 1.813-1.44 3.213-2.72 4.2-1.254.987-2.987 1.48-5.2 1.48Zm0-2.88c1.013 0 1.853-.12 2.52-.36.693-.24 1.24-.68 1.64-1.32.426-.64.72-1.573.88-2.8.186-1.227.28-2.827.28-4.8 0-1.973-.094-3.573-.28-4.8-.16-1.227-.454-2.16-.88-2.8-.4-.667-.947-1.107-1.64-1.32-.667-.24-1.507-.36-2.52-.36-1.014 0-1.867.12-2.56.36-.667.213-1.214.653-1.64 1.32-.4.64-.694 1.573-.88 2.8-.187 1.227-.28 2.827-.28 4.8 0 1.973.093 3.573.28 4.8.186 1.227.48 2.16.88 2.8.426.64.973 1.08 1.64 1.32.693.24 1.546.36 2.56.36Zm21.687 2.88c-1.44 0-2.72-.413-3.84-1.24-1.094-.827-1.96-2.107-2.6-3.84-.614-1.733-.92-3.947-.92-6.64 0-2.587.226-4.693.68-6.32.48-1.653 1.12-2.933 1.92-3.84.8-.907 1.68-1.533 2.64-1.88.986-.373 2-.56 3.04-.56.88 0 1.653.053 2.32.16.666.107 1.24.227 1.72.36.506.133.906.267 1.2.4v-7.24h3.32V47h-2.2l-.44-2.4h-.2c-.347.267-.827.64-1.44 1.12-.614.453-1.36.867-2.24 1.24-.854.373-1.84.56-2.96.56Zm.2-2.96c.533 0 1.08-.067 1.64-.2.56-.16 1.106-.347 1.64-.56.56-.213 1.066-.44 1.52-.68.48-.24.866-.453 1.16-.64V27.2c-.32-.133-.774-.28-1.36-.44-.56-.16-1.2-.293-1.92-.4-.72-.133-1.48-.2-2.28-.2-1.494 0-2.507.32-3.04.96-.214.293-.44.76-.68 1.4-.214.64-.4 1.56-.56 2.76-.134 1.173-.2 2.733-.2 4.68 0 2.187.106 3.84.32 4.96.24 1.12.506 1.893.8 2.32.293.427.52.707.68.84.213.187.52.32.92.4.4.053.853.08 1.36.08Z"/><path fill="#000" d="M187.056 47.56c-1.093 0-2.147-.133-3.16-.4a16.304 16.304 0 0 1-2.72-.88 32.673 32.673 0 0 1-1.84-.88l-.68-.4.16-.4c.133-.293.28-.613.44-.96.16-.373.293-.693.4-.96l.2-.4.64.36c.453.213 1.053.467 1.8.76.747.267 1.6.52 2.56.76.96.213 1.96.32 3 .32.667 0 1.187-.053 1.56-.16.4-.133.68-.253.84-.36.533-.373.947-.88 1.24-1.52.293-.667.44-1.52.44-2.56 0-1.013-.213-1.853-.64-2.52a5.457 5.457 0 0 0-1.72-1.68 14.141 14.141 0 0 0-2.28-1.2 65.326 65.326 0 0 1-3-1.36 12.675 12.675 0 0 1-2.48-1.56 5.988 5.988 0 0 1-1.68-2.2c-.4-.907-.6-2.027-.6-3.36 0-1.387.307-2.627.92-3.72.613-1.12 1.533-2 2.76-2.64 1.227-.667 2.747-1 4.56-1 .88 0 1.707.053 2.48.16.773.08 1.467.173 2.08.28.613.107 1.093.213 1.44.32l.52.12-.56 2.88-.56-.08c-.373-.08-.88-.173-1.52-.28-.64-.107-1.36-.187-2.16-.24-.8-.08-1.613-.12-2.44-.12-.667 0-1.2.04-1.6.12-.373.08-.707.213-1 .4-.347.187-.68.573-1 1.16-.293.56-.44 1.333-.44 2.32 0 1.093.28 1.987.84 2.68.56.693 1.293 1.267 2.2 1.72.907.427 1.867.853 2.88 1.28.8.32 1.587.693 2.36 1.12.773.4 1.467.893 2.08 1.48s1.107 1.333 1.48 2.24c.373.88.56 1.96.56 3.24 0 1.627-.36 3.053-1.08 4.28-.693 1.2-1.667 2.147-2.92 2.84-1.253.667-2.707 1-4.36 1Zm19.03-.04c-1.227 0-2.32-.28-3.28-.84-.934-.587-1.667-1.427-2.2-2.52-.534-1.12-.8-2.467-.8-4.04 0-1.893.373-3.373 1.12-4.44.773-1.093 1.853-1.867 3.24-2.32 1.386-.453 3-.68 4.84-.68h4.24c0-1.333-.04-2.493-.12-3.48-.054-1.013-.267-1.76-.64-2.24-.267-.373-.64-.613-1.12-.72a6.278 6.278 0 0 0-1.44-.16c-1.04 0-2.067.107-3.08.32-.987.187-1.894.413-2.72.68-.8.267-1.44.507-1.92.72l-.72.28-1.16-2.6.76-.32c.506-.24 1.186-.507 2.04-.8.853-.32 1.8-.587 2.84-.8 1.066-.24 2.16-.36 3.28-.36 1.813 0 3.253.36 4.32 1.08 1.066.693 1.826 1.68 2.28 2.96.48 1.253.72 2.733.72 4.44V47h-2.16l-.48-2.44h-.24c-.267.187-.654.453-1.16.8-.48.32-1.054.653-1.72 1-.64.32-1.36.587-2.16.8-.8.24-1.654.36-2.56.36Zm.56-2.92a9.07 9.07 0 0 0 2.72-.4c.88-.293 1.653-.613 2.32-.96a21.927 21.927 0 0 0 1.56-.84v-6.64a22.598 22.598 0 0 0-1.56-.16c-.694-.08-1.6-.12-2.72-.12-2.48 0-4.014.253-4.6.76-.347.267-.614.747-.8 1.44-.187.667-.28 1.48-.28 2.44 0 1.573.253 2.72.76 3.44.533.693 1.4 1.04 2.6 1.04Zm21.093 2.4-6.76-23.28h3.56l5.24 20.44h.24l5.2-20.44h3.56L232.059 47h-4.32Zm23.146.52c-2.214 0-3.96-.493-5.24-1.48-1.254-.987-2.147-2.387-2.68-4.2-.534-1.813-.8-3.973-.8-6.48 0-2.507.266-4.667.8-6.48.533-1.813 1.426-3.213 2.68-4.2 1.28-.987 3.026-1.48 5.24-1.48 2.213 0 3.946.493 5.2 1.48 1.28.987 2.186 2.387 2.72 4.2.533 1.813.8 3.973.8 6.48 0 2.507-.267 4.667-.8 6.48-.534 1.813-1.44 3.213-2.72 4.2-1.254.987-2.987 1.48-5.2 1.48Zm0-2.88c1.013 0 1.853-.12 2.52-.36.693-.24 1.24-.68 1.64-1.32.426-.64.72-1.573.88-2.8.186-1.227.28-2.827.28-4.8 0-1.973-.094-3.573-.28-4.8-.16-1.227-.454-2.16-.88-2.8-.4-.667-.947-1.107-1.64-1.32-.667-.24-1.507-.36-2.52-.36-1.014 0-1.867.12-2.56.36-.667.213-1.214.653-1.64 1.32-.4.64-.694 1.573-.88 2.8-.187 1.227-.28 2.827-.28 4.8 0 1.973.093 3.573.28 4.8.186 1.227.48 2.16.88 2.8.426.64.973 1.08 1.64 1.32.693.24 1.546.36 2.56.36ZM266.451 47V23.72h2.12l.44 2.36h.24l.6-.44c.427-.293.974-.627 1.64-1a17.286 17.286 0 0 1 2.12-1c.774-.293 1.494-.44 2.16-.44.4 0 .774.04 1.12.12l.52.08-.28 3.2-.52-.04c-.346-.027-.666-.04-.96-.04-.746 0-1.506.107-2.28.32-.746.213-1.44.48-2.08.8-.64.32-1.146.627-1.52.92V47h-3.32Z"/></svg>